<?xml version="1.0" standalone="no"?>
<!DOCTYPE svg PUBLIC "-//W3C//DTD SVG 20010904//EN"
 "http://www.w3.org/TR/2001/REC-SVG-20010904/DTD/svg10.dtd">
<svg version="1.0" xmlns="http://www.w3.org/2000/svg"
 width="1826.000000pt" height="1826.000000pt" viewBox="0 0 1826.000000 1826.000000"
 preserveAspectRatio="xMidYMid meet">

<g transform="translate(0.000000,1826.000000) scale(0.100000,-0.100000)"
fill="#000000" stroke="none">
<path d="M8695 18249 c-3288 -160 -6240 -2076 -7715 -5009 -1106 -2200 -1282
-4716 -494 -7041 1163 -3431 4240 -5845 7854 -6163 2434 -215 4866 567 6730
2162 2231 1910 3412 4800 3154 7722 -318 3615 -2732 6691 -6163 7854 -1083
367 -2236 530 -3366 475z m1835 -4573 c0 -232 -4 -407 -9 -410 -5 -4 -71 -9
-148 -12 -188 -8 -456 -47 -646 -95 -515 -129 -1028 -406 -1411 -763 -463
-433 -775 -947 -944 -1558 -50 -179 -56 -210 -84 -388 -20 -127 -22 -184 -22
-465 0 -302 1 -330 27 -490 86 -524 288 -1014 591 -1430 202 -278 408 -488
673 -687 531 -400 1147 -626 1791 -658 90 -4 168 -12 173 -17 5 -5 8 -177 7
-409 l-3 -399 -130 1 c-261 3 -579 46 -845 115 -570 147 -1041 372 -1495 715
-121 91 -115 86 -294 248 -143 129 -254 243 -357 366 -590 706 -918 1541 -965
2456 -31 602 81 1226 318 1784 110 257 197 420 348 650 329 503 785 945 1293
1254 604 368 1345 588 2005 595 l127 1 0 -404z m329 -1257 c824 -116 1502
-603 1876 -1349 148 -293 239 -654 247 -975 l3 -110 -1205 -2 c-663 -1 -1215
-2 -1227 -3 l-23 0 -2 -1222 -3 -1223 -77 -3 c-167 -6 -549 68 -764 149 -115
43 -346 153 -420 200 -101 65 -160 104 -185 124 -15 11 -41 31 -59 45 -134
102 -313 281 -422 421 -262 338 -430 730 -498 1164 -31 198 -31 513 0 705 67
419 198 743 433 1075 67 94 290 355 305 355 4 1 34 26 67 56 183 169 530 384
720 446 28 9 75 26 105 38 88 33 322 90 454 110 178 26 483 26 675 -1z m-5259
-2439 c12 -7 16 -45 22 -187 24 -657 171 -1264 454 -1887 269 -591 709 -1177
1228 -1633 149 -132 428 -340 582 -436 324 -201 720 -396 979 -482 347 -116
686 -199 962 -236 40 -5 94 -14 120 -19 26 -6 163 -15 303 -21 140 -6 262 -15
272 -20 17 -9 18 -35 18 -382 0 -205 -3 -383 -7 -396 l-6 -24 -276 6 c-272 6
-481 25 -691 63 -1061 194 -1945 612 -2779 1315 -146 124 -484 461 -598 598
-255 308 -398 504 -568 786 -496 820 -786 1799 -812 2739 -5 172 -3 210 8 217
19 12 770 11 789 -1z"/>
</g>
</svg>
